<svg width="17" height="16" viewBox="0 0 17 16" fill="none" xmlns="http://www.w3.org/2000/svg">
<path d="M15.7746 1.5254C15.3654 1.04795 14.8197 0.775094 14.2058 0.843324H2.40572C1.17796 0.843324 0.154829 2.00288 0.359456 3.23064L1.99647 13.462C2.1329 14.4851 3.0196 15.1672 4.04273 15.1672H12.637C13.6602 15.1672 14.5469 14.4169 14.6833 13.462L16.3203 3.23064C16.3885 2.61676 16.1839 2.00288 15.7746 1.5254ZM9.77227 9.71046C9.56765 9.50583 9.36302 9.3694 9.09019 9.30121L9.63588 6.57286L8.27169 6.30004L7.65781 9.23301C7.38499 9.30121 7.11213 9.50583 6.8393 9.71046L3.42885 6.36824C6.089 3.70809 10.3862 3.70809 13.0463 6.36824L9.77227 9.71046Z" fill="white"/>
</svg>
